<svg xmlns="http://www.w3.org/2000/svg" width="51.96" height="90" viewBox="0 0 51.96 90"><rect width="100%" height="100%" fill="#4353d8"/><polygon points="0,-28.2 24.42,-14.1 24.42,14.1 0,28.2 -24.42,14.1 -24.42,-14.1" fill="#4a5ade" stroke="#5565e4" stroke-width="1.5"/><polygon points="51.96,-28.2 76.38,-14.1 76.38,14.1 51.96,28.2 27.54,14.1 27.54,-14.1" fill="#4a5ade" stroke="#5565e4" stroke-width="1.5"/><polygon points="25.98,16.8 50.4,30.9 50.4,59.1 25.98,73.2 1.56,59.1 1.56,30.9" fill="#4a5ade" stroke="#5565e4" stroke-width="1.5"/><polygon points="0,61.8 24.42,75.9 24.42,104.1 0,118.2 -24.42,104.1 -24.42,75.9" fill="#4a5ade" stroke="#5565e4" stroke-width="1.5"/><polygon points="51.96,61.8 76.38,75.9 76.38,104.1 51.96,118.2 27.54,104.1 27.54,75.9" fill="#4a5ade" stroke="#5565e4" stroke-width="1.5"/></svg>